<mxfile host="embed.diagrams.net" agent="Mozilla/5.0 (X11; Ubuntu; Linux x86_64; rv:139.0) Gecko/20100101 Firefox/139.0" version="27.1.4">
  <diagram name="Page-1" id="9u_5SAsCUr1ULjLXrb9y">
    <mxGraphModel grid="1" page="1" gridSize="10" guides="1" tooltips="1" connect="1" arrows="1" fold="1" pageScale="1" pageWidth="850" pageHeight="1100" math="0" shadow="0" adaptiveColors="none">
      <root>
        <mxCell id="0" />
        <mxCell id="1" parent="0" />
        <mxCell id="sG7xvZkgZCj6ZZEBmGvM-1" value="Python Script" style="rounded=0;whiteSpace=wrap;html=1;verticalAlign=top;" vertex="1" parent="1">
          <mxGeometry x="40" y="280" width="120" height="280" as="geometry" />
        </mxCell>
        <mxCell id="sG7xvZkgZCj6ZZEBmGvM-2" value="Motion Primitives Forward Controller" style="rounded=0;whiteSpace=wrap;html=1;verticalAlign=top;" vertex="1" parent="1">
          <mxGeometry x="440" y="280" width="120" height="280" as="geometry" />
        </mxCell>
        <mxCell id="sG7xvZkgZCj6ZZEBmGvM-4" value="&lt;div&gt;Action&lt;/div&gt;&lt;div&gt;Server&lt;/div&gt;" style="rounded=0;whiteSpace=wrap;html=1;verticalAlign=middle;fillColor=#C3C3C3;" vertex="1" parent="1">
          <mxGeometry x="450" y="320" width="100" height="230" as="geometry" />
        </mxCell>
        <mxCell id="sG7xvZkgZCj6ZZEBmGvM-5" value="&lt;div&gt;Action&lt;/div&gt;&lt;div&gt;Client&lt;/div&gt;" style="rounded=0;whiteSpace=wrap;html=1;verticalAlign=middle;fillColor=#C3C3C3;" vertex="1" parent="1">
          <mxGeometry x="50" y="320" width="100" height="230" as="geometry" />
        </mxCell>
        <mxCell id="sG7xvZkgZCj6ZZEBmGvM-6" value="" style="endArrow=classic;html=1;rounded=0;entryX=0.009;entryY=0.086;entryDx=0;entryDy=0;entryPerimeter=0;strokeWidth=2;strokeColor=#0000FF;" edge="1" parent="1" target="sG7xvZkgZCj6ZZEBmGvM-4">
          <mxGeometry width="50" height="50" relative="1" as="geometry">
            <mxPoint x="150" y="340" as="sourcePoint" />
            <mxPoint x="340" y="430" as="targetPoint" />
          </mxGeometry>
        </mxCell>
        <mxCell id="sG7xvZkgZCj6ZZEBmGvM-7" value="Send Goal (Motion Primitives Sequence)" style="edgeLabel;html=1;align=center;verticalAlign=middle;resizable=0;points=[];fontSize=10;" connectable="0" vertex="1" parent="sG7xvZkgZCj6ZZEBmGvM-6">
          <mxGeometry x="-0.1147" y="1" relative="1" as="geometry">
            <mxPoint x="17" as="offset" />
          </mxGeometry>
        </mxCell>
        <mxCell id="sG7xvZkgZCj6ZZEBmGvM-8" value="" style="endArrow=classic;html=1;rounded=0;exitX=0.987;exitY=0.088;exitDx=0;exitDy=0;exitPerimeter=0;entryX=0.976;entryY=0.178;entryDx=0;entryDy=0;entryPerimeter=0;strokeWidth=2;strokeColor=#0000FF;" edge="1" parent="1">
          <mxGeometry width="50" height="50" relative="1" as="geometry">
            <mxPoint x="450" y="356" as="sourcePoint" />
            <mxPoint x="147.5999999999999" y="356.93999999999994" as="targetPoint" />
          </mxGeometry>
        </mxCell>
        <mxCell id="sG7xvZkgZCj6ZZEBmGvM-9" value="Goal accepted or rejected" style="edgeLabel;html=1;align=center;verticalAlign=middle;resizable=0;points=[];fontSize=10;" connectable="0" vertex="1" parent="sG7xvZkgZCj6ZZEBmGvM-8">
          <mxGeometry x="-0.1147" y="1" relative="1" as="geometry">
            <mxPoint x="-16" y="-3" as="offset" />
          </mxGeometry>
        </mxCell>
        <mxCell id="sG7xvZkgZCj6ZZEBmGvM-10" value="" style="endArrow=classic;html=1;rounded=0;entryX=0.009;entryY=0.086;entryDx=0;entryDy=0;entryPerimeter=0;strokeWidth=2;strokeColor=#CC0000;" edge="1" parent="1">
          <mxGeometry width="50" height="50" relative="1" as="geometry">
            <mxPoint x="150" y="410" as="sourcePoint" />
            <mxPoint x="450" y="409.5" as="targetPoint" />
          </mxGeometry>
        </mxCell>
        <mxCell id="sG7xvZkgZCj6ZZEBmGvM-11" value="Cancle Goal request" style="edgeLabel;html=1;align=center;verticalAlign=middle;resizable=0;points=[];fontSize=10;" connectable="0" vertex="1" parent="sG7xvZkgZCj6ZZEBmGvM-10">
          <mxGeometry x="-0.1147" y="1" relative="1" as="geometry">
            <mxPoint x="17" as="offset" />
          </mxGeometry>
        </mxCell>
        <mxCell id="sG7xvZkgZCj6ZZEBmGvM-12" value="" style="endArrow=classic;html=1;rounded=0;exitX=0.987;exitY=0.088;exitDx=0;exitDy=0;exitPerimeter=0;entryX=0.976;entryY=0.178;entryDx=0;entryDy=0;entryPerimeter=0;strokeWidth=2;strokeColor=#CC0000;" edge="1" parent="1">
          <mxGeometry width="50" height="50" relative="1" as="geometry">
            <mxPoint x="449" y="425.5" as="sourcePoint" />
            <mxPoint x="147" y="426.5" as="targetPoint" />
          </mxGeometry>
        </mxCell>
        <mxCell id="sG7xvZkgZCj6ZZEBmGvM-13" value="Response code" style="edgeLabel;html=1;align=center;verticalAlign=middle;resizable=0;points=[];fontSize=10;" connectable="0" vertex="1" parent="sG7xvZkgZCj6ZZEBmGvM-12">
          <mxGeometry x="-0.1147" y="1" relative="1" as="geometry">
            <mxPoint x="-16" y="-2" as="offset" />
          </mxGeometry>
        </mxCell>
        <mxCell id="sG7xvZkgZCj6ZZEBmGvM-14" value="" style="endArrow=classic;html=1;rounded=0;exitX=0.987;exitY=0.088;exitDx=0;exitDy=0;exitPerimeter=0;entryX=0.009;entryY=0.086;entryDx=0;entryDy=0;entryPerimeter=0;strokeWidth=2;strokeColor=#009900;" edge="1" parent="1">
          <mxGeometry width="50" height="50" relative="1" as="geometry">
            <mxPoint x="150" y="520" as="sourcePoint" />
            <mxPoint x="452" y="520" as="targetPoint" />
          </mxGeometry>
        </mxCell>
        <mxCell id="sG7xvZkgZCj6ZZEBmGvM-15" value="Request result" style="edgeLabel;html=1;align=center;verticalAlign=middle;resizable=0;points=[];fontSize=10;" connectable="0" vertex="1" parent="sG7xvZkgZCj6ZZEBmGvM-14">
          <mxGeometry x="-0.1147" y="1" relative="1" as="geometry">
            <mxPoint x="17" as="offset" />
          </mxGeometry>
        </mxCell>
        <mxCell id="sG7xvZkgZCj6ZZEBmGvM-16" value="" style="endArrow=classic;html=1;rounded=0;exitX=0.987;exitY=0.088;exitDx=0;exitDy=0;exitPerimeter=0;entryX=0.976;entryY=0.178;entryDx=0;entryDy=0;entryPerimeter=0;strokeWidth=2;strokeColor=#009900;" edge="1" parent="1">
          <mxGeometry width="50" height="50" relative="1" as="geometry">
            <mxPoint x="451" y="536" as="sourcePoint" />
            <mxPoint x="149" y="537" as="targetPoint" />
          </mxGeometry>
        </mxCell>
        <mxCell id="sG7xvZkgZCj6ZZEBmGvM-17" value="Result" style="edgeLabel;html=1;align=center;verticalAlign=middle;resizable=0;points=[];fontSize=10;" connectable="0" vertex="1" parent="sG7xvZkgZCj6ZZEBmGvM-16">
          <mxGeometry x="-0.1147" y="1" relative="1" as="geometry">
            <mxPoint x="-16" y="-3" as="offset" />
          </mxGeometry>
        </mxCell>
        <mxCell id="sG7xvZkgZCj6ZZEBmGvM-18" value="" style="endArrow=classic;html=1;rounded=0;exitX=0.987;exitY=0.088;exitDx=0;exitDy=0;exitPerimeter=0;entryX=0.976;entryY=0.178;entryDx=0;entryDy=0;entryPerimeter=0;strokeWidth=2;strokeColor=#7F7F7F;" edge="1" parent="1">
          <mxGeometry width="50" height="50" relative="1" as="geometry">
            <mxPoint x="450" y="474" as="sourcePoint" />
            <mxPoint x="148" y="475" as="targetPoint" />
          </mxGeometry>
        </mxCell>
        <mxCell id="sG7xvZkgZCj6ZZEBmGvM-19" value="Feedback" style="edgeLabel;html=1;align=center;verticalAlign=middle;resizable=0;points=[];fontSize=10;fontColor=#7F7F7F;" connectable="0" vertex="1" parent="sG7xvZkgZCj6ZZEBmGvM-18">
          <mxGeometry x="-0.1147" y="1" relative="1" as="geometry">
            <mxPoint x="-16" y="-3" as="offset" />
          </mxGeometry>
        </mxCell>
      </root>
    </mxGraphModel>
  </diagram>
</mxfile>
